#N canvas 415 960 1850 1673 12;
#N canvas 85 634 2475 2149 w2ctl 0;
#X obj 1370 386 ctlout 23 13;
#X floatatom 1370 355 5 0 0 0 - - - 0;
#X text 1154 156 12 Equal Temperament;
#X text 1155 175 Centaur;
#X text 1156 195 Harp of New Albion;
#X text 1156 214 Carlos Harmonic;
#X text 1157 232 Well Tuned Piano;
#X text 1158 251 Meta Slendro;
#X text 1158 271 Bihexany;
#X text 1158 290 Hexachordal Dodecaphonic;
#X text 1158 308 Augmented[12];
#X obj 867 140 vsl 19 162 0 16383 0 0 empty empty empty 0 -9 0 12 #fcfcfc #000000 #000000 0 0;
#X floatatom 677 865 5 0 0 0 - - - 0;
#X floatatom 676 930 5 0 0 0 - - - 0;
#X obj 675 899 >> 7;
#X floatatom 773 928 5 0 0 0 - - - 0;
#X obj 773 897 & 127;
#X obj 906 140 vsl 19 162 0 16383 0 0 empty empty empty 0 -9 0 12 #fcfcfc #000000 #000000 0 0;
#X floatatom 885 862 5 0 0 0 - - - 0;
#X floatatom 884 927 5 0 0 0 - - - 0;
#X obj 883 896 >> 7;
#X floatatom 981 925 5 0 0 0 - - - 0;
#X obj 981 894 & 127;
#X obj 946 138 vsl 19 162 0 16383 0 0 empty empty empty 0 -9 0 12 #fcfcfc #000000 #000000 0 0;
#X floatatom 1086 858 5 0 0 0 - - - 0;
#X floatatom 1085 923 5 0 0 0 - - - 0;
#X obj 1084 892 >> 7;
#X floatatom 1182 921 5 0 0 0 - - - 0;
#X obj 1182 890 & 127;
#X obj 887 955 ctlout 1 3;
#X obj 983 955 ctlout 33 3;
#X obj 775 958 ctlout 43 3;
#X obj 679 958 ctlout 11 3;
#X obj 992 173 vsl 19 162 0 16383 0 0 empty empty empty 0 -9 0 12 #fcfcfc #000000 #000000 0 0;
#X floatatom 1297 858 5 0 0 0 - - - 0;
#X floatatom 1296 923 5 0 0 0 - - - 0;
#X obj 1295 892 >> 7;
#X floatatom 1393 921 5 0 0 0 - - - 0;
#X obj 1393 890 & 127;
#X obj 1033 171 vsl 19 162 0 16383 0 0 empty empty empty 0 -9 0 12 #fcfcfc #000000 #000000 0 0;
#X floatatom 1505 855 5 0 0 0 - - - 0;
#X floatatom 1504 920 5 0 0 0 - - - 0;
#X obj 1503 889 >> 7;
#X floatatom 1601 918 5 0 0 0 - - - 0;
#X obj 1601 887 & 127;
#X obj 1072 169 vsl 19 162 0 16383 0 0 empty empty empty 0 -9 0 12 #fcfcfc #000000 #000000 0 0;
#X floatatom 1706 851 5 0 0 0 - - - 0;
#X floatatom 1705 916 5 0 0 0 - - - 0;
#X obj 1704 885 >> 7;
#X floatatom 1802 914 5 0 0 0 - - - 0;
#X obj 1802 883 & 127;
#X obj 746 193 vsl 19 162 0 16383 0 0 empty empty empty 0 -9 0 12 #fcfcfc #000000 #000000 0 0;
#X floatatom 69 868 5 0 0 0 - - - 0;
#X floatatom 68 933 5 0 0 0 - - - 0;
#X obj 67 902 >> 7;
#X floatatom 165 931 5 0 0 0 - - - 0;
#X obj 165 900 & 127;
#X obj 785 192 vsl 19 162 0 16383 0 0 empty empty empty 0 -9 0 12 #fcfcfc #000000 #000000 0 0;
#X floatatom 277 865 5 0 0 0 - - - 0;
#X floatatom 276 930 5 0 0 0 - - - 0;
#X obj 275 899 >> 7;
#X floatatom 373 928 5 0 0 0 - - - 0;
#X obj 373 897 & 127;
#X obj 824 193 vsl 19 162 0 16383 0 0 empty empty empty 0 -9 0 12 #fcfcfc #000000 #000000 0 0;
#X floatatom 479 865 5 0 0 0 - - - 0;
#X floatatom 478 930 5 0 0 0 - - - 0;
#X obj 477 899 >> 7;
#X floatatom 575 928 5 0 0 0 - - - 0;
#X obj 575 897 & 127;
#X obj 71 961 ctlout 11 1;
#X obj 167 961 ctlout 43 1;
#X obj 279 958 ctlout 1 1;
#X obj 375 958 ctlout 33 1;
#X obj 1299 951 ctlout 11 2;
#X obj 1395 951 ctlout 43 2;
#X obj 1507 948 ctlout 1 2;
#X obj 1603 948 ctlout 33 2;
#X obj 1708 944 ctlout 7 2;
#X obj 1804 944 ctlout 39 2;
#X obj 481 958 ctlout 7 1;
#X obj 577 958 ctlout 39 1;
#X obj 1132 157 vradio 19 1 0 9 empty empty empty 0 -10 0 13 #00ff04 #000000 #000000 0;
#X obj 1088 951 ctlout 7 3;
#X obj 1184 951 ctlout 39 3;
#X obj 542 277 vradio 19 1 0 4 empty empty empty 0 -10 0 12 #c6ffc7 #000000 #000000 0;
#X text 565 275 Poly;
#X text 564 294 String;
#X text 565 314 Bar;
#X text 566 333 Cave;
#X obj 536 758 ctlout 0 1;
#X obj 639 276 vradio 19 1 0 4 empty empty empty 0 -10 0 12 #ffe3c6 #000000 #000000 0;
#X text 662 274 Poly;
#X text 661 293 String;
#X text 662 313 Bar;
#X text 663 332 Cave;
#X obj 625 758 ctlout 0 2;
#X obj 541 723 * 32;
#X obj 626 727 * 32;
#X obj 827 809 ctlout 20 16;
#X obj 929 809 ctlout 21 16;
#X obj 1033 806 ctlout 22 16;
#X floatatom 533 120 5 1 16 0 - - - 0;
#X floatatom 634 119 5 1 16 0 - - - 0;
#X floatatom 536 172 5 1 16 0 - - - 0;
#X obj 826 22 loadbang;
#X msg 824 55 set 1;
#X msg 922 52 set 2;
#X msg 1023 50 set 3;
#X msg 268 164 set 440;
#X floatatom 537 220 17 358.08 521.92 0 - - - 0;
#X obj 266 218 - 440;
#X obj 266 241 * 100;
#X obj 266 264 + 8192;
#X floatatom 269 337 5 0 0 0 - - - 0;
#X obj 268 306 >> 7;
#X floatatom 366 335 5 0 0 0 - - - 0;
#X obj 366 304 & 127;
#X obj 272 364 ctlout 23 16;
#X obj 368 365 ctlout 55 16;
#N canvas 203 1005 2291 1560 cave-tune 0;
#X obj 100 390 ctlout 23 14;
#X obj 193 390 ctlout 55 14;
#X obj 297 390 ctlout 24 14;
#X obj 390 390 ctlout 56 14;
#X floatatom 111 179 5 0 0 0 - - - 0;
#X floatatom 98 349 5 0 0 0 - - - 0;
#X obj 97 318 >> 7;
#X floatatom 195 347 5 0 0 0 - - - 0;
#X obj 195 316 & 127;
#X floatatom 195 180 5 0 0 0 - - - 0;
#X floatatom 298 347 5 0 0 0 - - - 0;
#X obj 297 316 >> 7;
#X floatatom 395 345 5 0 0 0 - - - 0;
#X obj 395 314 & 127;
#X floatatom 287 180 5 0 0 0 - - - 0;
#X floatatom 486 349 5 0 0 0 - - - 0;
#X obj 485 318 >> 7;
#X floatatom 583 347 5 0 0 0 - - - 0;
#X obj 583 316 & 127;
#X floatatom 376 179 5 0 0 0 - - - 0;
#X floatatom 686 347 5 0 0 0 - - - 0;
#X obj 685 316 >> 7;
#X floatatom 783 345 5 0 0 0 - - - 0;
#X obj 783 314 & 127;
#X floatatom 464 178 5 0 0 0 - - - 0;
#X floatatom 875 349 5 0 0 0 - - - 0;
#X obj 874 318 >> 7;
#X floatatom 972 347 5 0 0 0 - - - 0;
#X obj 972 316 & 127;
#X floatatom 560 177 5 0 0 0 - - - 0;
#X floatatom 1075 347 5 0 0 0 - - - 0;
#X obj 1074 316 >> 7;
#X floatatom 1172 345 5 0 0 0 - - - 0;
#X obj 1172 314 & 127;
#X floatatom 654 177 5 0 0 0 - - - 0;
#X floatatom 1262 349 5 0 0 0 - - - 0;
#X obj 1261 318 >> 7;
#X floatatom 1359 347 5 0 0 0 - - - 0;
#X obj 1359 316 & 127;
#X floatatom 763 176 5 0 0 0 - - - 0;
#X floatatom 1462 347 5 0 0 0 - - - 0;
#X obj 1461 316 >> 7;
#X floatatom 1559 345 5 0 0 0 - - - 0;
#X obj 1559 314 & 127;
#X obj 488 390 ctlout 25 14;
#X obj 581 390 ctlout 57 14;
#X obj 685 390 ctlout 26 14;
#X obj 778 390 ctlout 58 14;
#X obj 877 390 ctlout 27 14;
#X obj 970 390 ctlout 59 14;
#X obj 1074 390 ctlout 28 14;
#X obj 1167 390 ctlout 60 14;
#X obj 1264 390 ctlout 29 14;
#X obj 1357 390 ctlout 61 14;
#X obj 1461 390 ctlout 30 14;
#X obj 1554 390 ctlout 62 14;
#X floatatom 871 176 5 0 0 0 - - - 0;
#X floatatom 1656 345 5 0 0 0 - - - 0;
#X obj 1655 314 >> 7;
#X floatatom 1753 343 5 0 0 0 - - - 0;
#X obj 1753 312 & 127;
#X obj 1655 388 ctlout 31 14;
#X obj 1748 388 ctlout 63 14;
#X floatatom 112 270 5 0 0 0 - - - 0;
#X floatatom 99 531 5 0 0 0 - - - 0;
#X obj 98 500 >> 7;
#X floatatom 196 529 5 0 0 0 - - - 0;
#X obj 196 498 & 127;
#X floatatom 195 270 5 0 0 0 - - - 0;
#X floatatom 299 529 5 0 0 0 - - - 0;
#X obj 298 498 >> 7;
#X floatatom 396 527 5 0 0 0 - - - 0;
#X obj 396 496 & 127;
#X floatatom 286 270 5 0 0 0 - - - 0;
#X floatatom 487 531 5 0 0 0 - - - 0;
#X obj 486 500 >> 7;
#X floatatom 584 529 5 0 0 0 - - - 0;
#X obj 584 498 & 127;
#X floatatom 375 270 5 0 0 0 - - - 0;
#X floatatom 687 529 5 0 0 0 - - - 0;
#X obj 686 498 >> 7;
#X floatatom 784 527 5 0 0 0 - - - 0;
#X obj 784 496 & 127;
#X floatatom 464 270 5 0 0 0 - - - 0;
#X floatatom 876 531 5 0 0 0 - - - 0;
#X obj 875 500 >> 7;
#X floatatom 973 529 5 0 0 0 - - - 0;
#X obj 973 498 & 127;
#X floatatom 558 268 5 0 0 0 - - - 0;
#X floatatom 1076 529 5 0 0 0 - - - 0;
#X obj 1075 498 >> 7;
#X floatatom 1173 527 5 0 0 0 - - - 0;
#X obj 1173 496 & 127;
#X floatatom 654 268 5 0 0 0 - - - 0;
#X floatatom 1263 531 5 0 0 0 - - - 0;
#X obj 1262 500 >> 7;
#X floatatom 1360 529 5 0 0 0 - - - 0;
#X obj 1360 498 & 127;
#X floatatom 761 268 5 0 0 0 - - - 0;
#X floatatom 1463 529 5 0 0 0 - - - 0;
#X obj 1462 498 >> 7;
#X floatatom 1560 527 5 0 0 0 - - - 0;
#X obj 1560 496 & 127;
#X floatatom 870 267 5 0 0 0 - - - 0;
#X floatatom 1657 527 5 0 0 0 - - - 0;
#X obj 1656 496 >> 7;
#X floatatom 1754 525 5 0 0 0 - - - 0;
#X obj 1754 494 & 127;
#X obj 1749 570 ctlout 63 15;
#X obj 1656 570 ctlout 31 15;
#X obj 1555 572 ctlout 62 15;
#X obj 1462 572 ctlout 30 15;
#X obj 1358 572 ctlout 61 15;
#X obj 1265 572 ctlout 29 15;
#X obj 1168 572 ctlout 60 15;
#X obj 1075 572 ctlout 28 15;
#X obj 971 572 ctlout 59 15;
#X obj 878 572 ctlout 27 15;
#X obj 779 572 ctlout 58 15;
#X obj 686 572 ctlout 26 15;
#X obj 582 572 ctlout 57 15;
#X obj 489 572 ctlout 25 15;
#X obj 391 572 ctlout 56 15;
#X obj 298 572 ctlout 24 15;
#X obj 194 572 ctlout 55 15;
#X obj 101 572 ctlout 23 15;
#N canvas 267 505 2293 2347 freq-set-generator 0;
#X floatatom 372 294 5 0 0 0 - - - 0;
#X floatatom 199 111 5 0 0 0 - - - 0;
#X floatatom 264 111 5 0 0 0 - - - 0;
#X floatatom 329 111 5 0 0 0 - - - 0;
#X floatatom 391 111 5 0 0 0 - - - 0;
#X obj 373 218 bng 19 250 50 0 empty empty empty 0 -10 0 12 #fcfcfc #000000 #000000;
#X obj 112 110 bng 19 250 50 0 empty empty empty 0 -10 0 12 #fcfcfc #000000 #000000;
#X floatatom 420 401 5 0 0 0 - - - 0;
#X obj 421 325 bng 19 250 50 0 empty empty empty 0 -10 0 12 #fcfcfc #000000 #000000;
#X floatatom 473 508 5 0 0 0 - - - 0;
#X obj 474 432 bng 19 250 50 0 empty empty empty 0 -10 0 12 #fcfcfc #000000 #000000;
#X floatatom 524 615 5 0 0 0 - - - 0;
#X obj 525 539 bng 19 250 50 0 empty empty empty 0 -10 0 12 #fcfcfc #000000 #000000;
#X floatatom 575 723 5 0 0 0 - - - 0;
#X obj 576 647 bng 19 250 50 0 empty empty empty 0 -10 0 12 #fcfcfc #000000 #000000;
#X floatatom 626 828 5 0 0 0 - - - 0;
#X obj 627 752 bng 19 250 50 0 empty empty empty 0 -10 0 12 #fcfcfc #000000 #000000;
#X floatatom 674 935 5 0 0 0 - - - 0;
#X obj 675 859 bng 19 250 50 0 empty empty empty 0 -10 0 12 #fcfcfc #000000 #000000;
#X floatatom 722 1041 5 0 0 0 - - - 0;
#X obj 723 965 bng 19 250 50 0 empty empty empty 0 -10 0 12 #fcfcfc #000000 #000000;
#X floatatom 770 1148 5 0 0 0 - - - 0;
#X obj 771 1072 bng 19 250 50 0 empty empty empty 0 -10 0 12 #fcfcfc #000000 #000000;
#X text 200 136 Wᵢ = W₀ * (1 + A * i) * Bⁱ + C;
#X text 308 110 A;
#X text 370 109 B;
#X text 430 109 C;
#X text 239 111 W₀;
#X text 134 109 generate;
#X obj 340 328 outlet;
#X obj 404 445 outlet;
#X obj 458 538 outlet;
#X obj 513 649 outlet;
#X obj 567 759 outlet;
#X obj 610 864 outlet;
#X obj 659 971 outlet;
#X obj 706 1076 outlet;
#X obj 763 1170 outlet;
#X obj 371 251 expr $f1 * ($f2 * 1) * pow($f3 \, 1) + $f4;
#X msg 336 704 \$1;
#X obj 419 358 expr $f1 * ($f2 * 2) * pow($f3 \, 2) + $f4;
#X obj 472 465 expr $f1 * ($f2 * 3) * pow($f3 \, 3) + $f4;
#X obj 523 572 expr $f1 * ($f2 * 4) * pow($f3 \, 4) + $f4;
#X obj 574 680 expr $f1 * ($f2 * 5) * pow($f3 \, 5) + $f4;
#X obj 625 785 expr $f1 * ($f2 * 6) * pow($f3 \, 6) + $f4;
#X obj 673 892 expr $f1 * ($f2 * 7) * pow($f3 \, 7) + $f4;
#X obj 721 998 expr $f1 * ($f2 * 8) * pow($f3 \, 8) + $f4;
#X obj 769 1105 expr $f1 * ($f2 * 9) * pow($f3 \, 9) + $f4;
#X obj 191 15 loadbang;
#X msg 148 38 100;
#X msg 221 39 1;
#X msg 264 38 1;
#X msg 311 37 0;
#X connect 0 0 29 0;
#X connect 1 0 39 0;
#X connect 2 0 38 1;
#X connect 2 0 40 1;
#X connect 2 0 41 1;
#X connect 2 0 42 1;
#X connect 2 0 43 1;
#X connect 2 0 44 1;
#X connect 2 0 45 1;
#X connect 2 0 46 1;
#X connect 2 0 47 1;
#X connect 3 0 38 2;
#X connect 3 0 40 2;
#X connect 3 0 41 2;
#X connect 3 0 42 2;
#X connect 3 0 43 2;
#X connect 3 0 44 2;
#X connect 3 0 45 2;
#X connect 3 0 46 2;
#X connect 3 0 47 2;
#X connect 4 0 38 3;
#X connect 4 0 40 3;
#X connect 4 0 41 3;
#X connect 4 0 42 3;
#X connect 4 0 43 3;
#X connect 4 0 44 3;
#X connect 4 0 45 3;
#X connect 4 0 46 3;
#X connect 4 0 47 3;
#X connect 5 0 38 0;
#X connect 6 0 5 0;
#X connect 6 0 8 0;
#X connect 6 0 10 0;
#X connect 6 0 12 0;
#X connect 6 0 14 0;
#X connect 6 0 16 0;
#X connect 6 0 18 0;
#X connect 6 0 20 0;
#X connect 6 0 22 0;
#X connect 7 0 30 0;
#X connect 8 0 40 0;
#X connect 9 0 31 0;
#X connect 10 0 41 0;
#X connect 11 0 32 0;
#X connect 12 0 42 0;
#X connect 13 0 33 0;
#X connect 14 0 43 0;
#X connect 15 0 34 0;
#X connect 16 0 44 0;
#X connect 17 0 35 0;
#X connect 18 0 45 0;
#X connect 19 0 36 0;
#X connect 20 0 46 0;
#X connect 21 0 37 0;
#X connect 22 0 47 0;
#X connect 38 0 0 0;
#X connect 39 0 38 0;
#X connect 39 0 40 0;
#X connect 39 0 41 0;
#X connect 39 0 42 0;
#X connect 39 0 43 0;
#X connect 39 0 44 0;
#X connect 39 0 45 0;
#X connect 39 0 46 0;
#X connect 39 0 47 0;
#X connect 40 0 7 0;
#X connect 41 0 9 0;
#X connect 42 0 11 0;
#X connect 43 0 13 0;
#X connect 44 0 15 0;
#X connect 45 0 17 0;
#X connect 46 0 19 0;
#X connect 47 0 21 0;
#X connect 48 0 49 0;
#X connect 48 0 50 0;
#X connect 48 0 51 0;
#X connect 48 0 52 0;
#X connect 49 0 1 0;
#X connect 50 0 2 0;
#X connect 51 0 3 0;
#X connect 52 0 4 0;
#X coords 0 -1 1 1 355 60 2 100 100;
#X restore 112 112 pd freq-set-generator;
#N canvas 267 505 2293 2347 freq-set-generator 0;
#X floatatom 372 294 5 0 0 0 - - - 0;
#X floatatom 199 111 5 0 0 0 - - - 0;
#X floatatom 264 111 5 0 0 0 - - - 0;
#X floatatom 329 111 5 0 0 0 - - - 0;
#X floatatom 391 111 5 0 0 0 - - - 0;
#X obj 373 218 bng 19 250 50 0 empty empty empty 0 -10 0 12 #fcfcfc #000000 #000000;
#X obj 112 110 bng 19 250 50 0 empty empty empty 0 -10 0 12 #fcfcfc #000000 #000000;
#X floatatom 420 401 5 0 0 0 - - - 0;
#X obj 421 325 bng 19 250 50 0 empty empty empty 0 -10 0 12 #fcfcfc #000000 #000000;
#X floatatom 473 508 5 0 0 0 - - - 0;
#X obj 474 432 bng 19 250 50 0 empty empty empty 0 -10 0 12 #fcfcfc #000000 #000000;
#X floatatom 524 615 5 0 0 0 - - - 0;
#X obj 525 539 bng 19 250 50 0 empty empty empty 0 -10 0 12 #fcfcfc #000000 #000000;
#X floatatom 575 723 5 0 0 0 - - - 0;
#X obj 576 647 bng 19 250 50 0 empty empty empty 0 -10 0 12 #fcfcfc #000000 #000000;
#X floatatom 626 828 5 0 0 0 - - - 0;
#X obj 627 752 bng 19 250 50 0 empty empty empty 0 -10 0 12 #fcfcfc #000000 #000000;
#X floatatom 674 935 5 0 0 0 - - - 0;
#X obj 675 859 bng 19 250 50 0 empty empty empty 0 -10 0 12 #fcfcfc #000000 #000000;
#X floatatom 722 1041 5 0 0 0 - - - 0;
#X obj 723 965 bng 19 250 50 0 empty empty empty 0 -10 0 12 #fcfcfc #000000 #000000;
#X floatatom 770 1148 5 0 0 0 - - - 0;
#X obj 771 1072 bng 19 250 50 0 empty empty empty 0 -10 0 12 #fcfcfc #000000 #000000;
#X text 200 136 Wᵢ = W₀ * (1 + A * i) * Bⁱ + C;
#X text 308 110 A;
#X text 370 109 B;
#X text 430 109 C;
#X text 239 111 W₀;
#X text 134 109 generate;
#X obj 340 328 outlet;
#X obj 404 445 outlet;
#X obj 458 538 outlet;
#X obj 513 649 outlet;
#X obj 567 759 outlet;
#X obj 610 864 outlet;
#X obj 659 971 outlet;
#X obj 706 1076 outlet;
#X obj 763 1170 outlet;
#X obj 371 251 expr $f1 * ($f2 * 1) * pow($f3 \, 1) + $f4;
#X msg 336 704 \$1;
#X obj 419 358 expr $f1 * ($f2 * 2) * pow($f3 \, 2) + $f4;
#X obj 472 465 expr $f1 * ($f2 * 3) * pow($f3 \, 3) + $f4;
#X obj 523 572 expr $f1 * ($f2 * 4) * pow($f3 \, 4) + $f4;
#X obj 574 680 expr $f1 * ($f2 * 5) * pow($f3 \, 5) + $f4;
#X obj 625 785 expr $f1 * ($f2 * 6) * pow($f3 \, 6) + $f4;
#X obj 673 892 expr $f1 * ($f2 * 7) * pow($f3 \, 7) + $f4;
#X obj 721 998 expr $f1 * ($f2 * 8) * pow($f3 \, 8) + $f4;
#X obj 769 1105 expr $f1 * ($f2 * 9) * pow($f3 \, 9) + $f4;
#X obj 191 15 loadbang;
#X msg 148 38 100;
#X msg 221 39 1;
#X msg 264 38 1;
#X msg 311 37 0;
#X connect 0 0 29 0;
#X connect 1 0 39 0;
#X connect 2 0 38 1;
#X connect 2 0 40 1;
#X connect 2 0 41 1;
#X connect 2 0 42 1;
#X connect 2 0 43 1;
#X connect 2 0 44 1;
#X connect 2 0 45 1;
#X connect 2 0 46 1;
#X connect 2 0 47 1;
#X connect 3 0 38 2;
#X connect 3 0 40 2;
#X connect 3 0 41 2;
#X connect 3 0 42 2;
#X connect 3 0 43 2;
#X connect 3 0 44 2;
#X connect 3 0 45 2;
#X connect 3 0 46 2;
#X connect 3 0 47 2;
#X connect 4 0 38 3;
#X connect 4 0 40 3;
#X connect 4 0 41 3;
#X connect 4 0 42 3;
#X connect 4 0 43 3;
#X connect 4 0 44 3;
#X connect 4 0 45 3;
#X connect 4 0 46 3;
#X connect 4 0 47 3;
#X connect 5 0 38 0;
#X connect 6 0 5 0;
#X connect 6 0 8 0;
#X connect 6 0 10 0;
#X connect 6 0 12 0;
#X connect 6 0 14 0;
#X connect 6 0 16 0;
#X connect 6 0 18 0;
#X connect 6 0 20 0;
#X connect 6 0 22 0;
#X connect 7 0 30 0;
#X connect 8 0 40 0;
#X connect 9 0 31 0;
#X connect 10 0 41 0;
#X connect 11 0 32 0;
#X connect 12 0 42 0;
#X connect 13 0 33 0;
#X connect 14 0 43 0;
#X connect 15 0 34 0;
#X connect 16 0 44 0;
#X connect 17 0 35 0;
#X connect 18 0 45 0;
#X connect 19 0 36 0;
#X connect 20 0 46 0;
#X connect 21 0 37 0;
#X connect 22 0 47 0;
#X connect 38 0 0 0;
#X connect 39 0 38 0;
#X connect 39 0 40 0;
#X connect 39 0 41 0;
#X connect 39 0 42 0;
#X connect 39 0 43 0;
#X connect 39 0 44 0;
#X connect 39 0 45 0;
#X connect 39 0 46 0;
#X connect 39 0 47 0;
#X connect 40 0 7 0;
#X connect 41 0 9 0;
#X connect 42 0 11 0;
#X connect 43 0 13 0;
#X connect 44 0 15 0;
#X connect 45 0 17 0;
#X connect 46 0 19 0;
#X connect 47 0 21 0;
#X connect 48 0 49 0;
#X connect 48 0 50 0;
#X connect 48 0 51 0;
#X connect 48 0 52 0;
#X connect 49 0 1 0;
#X connect 50 0 2 0;
#X connect 51 0 3 0;
#X connect 52 0 4 0;
#X coords 0 -1 1 1 355 60 2 100 100;
#X restore 112 203 pd freq-set-generator;
#X connect 4 0 6 0;
#X connect 4 0 8 0;
#X connect 5 0 0 0;
#X connect 6 0 5 0;
#X connect 7 0 1 0;
#X connect 8 0 7 0;
#X connect 9 0 11 0;
#X connect 9 0 13 0;
#X connect 10 0 2 0;
#X connect 11 0 10 0;
#X connect 12 0 3 0;
#X connect 13 0 12 0;
#X connect 14 0 16 0;
#X connect 14 0 18 0;
#X connect 15 0 44 0;
#X connect 16 0 15 0;
#X connect 17 0 45 0;
#X connect 18 0 17 0;
#X connect 19 0 21 0;
#X connect 19 0 23 0;
#X connect 20 0 46 0;
#X connect 21 0 20 0;
#X connect 22 0 47 0;
#X connect 23 0 22 0;
#X connect 24 0 26 0;
#X connect 24 0 28 0;
#X connect 25 0 48 0;
#X connect 26 0 25 0;
#X connect 27 0 49 0;
#X connect 28 0 27 0;
#X connect 29 0 31 0;
#X connect 29 0 33 0;
#X connect 30 0 50 0;
#X connect 31 0 30 0;
#X connect 32 0 51 0;
#X connect 33 0 32 0;
#X connect 34 0 36 0;
#X connect 34 0 38 0;
#X connect 35 0 52 0;
#X connect 36 0 35 0;
#X connect 37 0 53 0;
#X connect 38 0 37 0;
#X connect 39 0 41 0;
#X connect 39 0 43 0;
#X connect 40 0 54 0;
#X connect 41 0 40 0;
#X connect 42 0 55 0;
#X connect 43 0 42 0;
#X connect 56 0 58 0;
#X connect 56 0 60 0;
#X connect 57 0 61 0;
#X connect 58 0 57 0;
#X connect 59 0 62 0;
#X connect 60 0 59 0;
#X connect 63 0 65 0;
#X connect 63 0 67 0;
#X connect 64 0 125 0;
#X connect 65 0 64 0;
#X connect 66 0 124 0;
#X connect 67 0 66 0;
#X connect 68 0 70 0;
#X connect 68 0 72 0;
#X connect 69 0 123 0;
#X connect 70 0 69 0;
#X connect 71 0 122 0;
#X connect 72 0 71 0;
#X connect 73 0 75 0;
#X connect 73 0 77 0;
#X connect 74 0 121 0;
#X connect 75 0 74 0;
#X connect 76 0 120 0;
#X connect 77 0 76 0;
#X connect 78 0 80 0;
#X connect 78 0 82 0;
#X connect 79 0 119 0;
#X connect 80 0 79 0;
#X connect 81 0 118 0;
#X connect 82 0 81 0;
#X connect 83 0 85 0;
#X connect 83 0 87 0;
#X connect 84 0 117 0;
#X connect 85 0 84 0;
#X connect 86 0 116 0;
#X connect 87 0 86 0;
#X connect 88 0 90 0;
#X connect 88 0 92 0;
#X connect 89 0 115 0;
#X connect 90 0 89 0;
#X connect 91 0 114 0;
#X connect 92 0 91 0;
#X connect 93 0 95 0;
#X connect 93 0 97 0;
#X connect 94 0 113 0;
#X connect 95 0 94 0;
#X connect 96 0 112 0;
#X connect 97 0 96 0;
#X connect 98 0 100 0;
#X connect 98 0 102 0;
#X connect 99 0 111 0;
#X connect 100 0 99 0;
#X connect 101 0 110 0;
#X connect 102 0 101 0;
#X connect 103 0 105 0;
#X connect 103 0 107 0;
#X connect 104 0 109 0;
#X connect 105 0 104 0;
#X connect 106 0 108 0;
#X connect 107 0 106 0;
#X connect 126 0 4 0;
#X connect 126 1 9 0;
#X connect 126 2 14 0;
#X connect 126 3 19 0;
#X connect 126 4 24 0;
#X connect 126 5 29 0;
#X connect 126 6 34 0;
#X connect 126 7 39 0;
#X connect 126 8 56 0;
#X connect 127 0 63 0;
#X connect 127 1 68 0;
#X connect 127 2 73 0;
#X connect 127 3 78 0;
#X connect 127 4 83 0;
#X connect 127 5 88 0;
#X connect 127 6 93 0;
#X connect 127 7 98 0;
#X connect 127 8 103 0;
#X coords 0 -1 1 1 825 200 2 100 100;
#X restore 513 387 pd cave-tune;
#X text 529 142 MIDI CH Left;
#X text 628 144 MIDI CH Right;
#X text 536 196 MIDI CH Both;
#X text 534 242 A3 Hz;
#X obj 271 127 loadbang;
#X text 742 360 mix;
#X text 776 359 decay;
#X text 822 362 vol;
#X text 986 145 right ---------;
#X text 742 165 left ----------;
#X text 860 117 both ----------;
#X text 864 311 mix;
#X text 898 310 decay;
#X text 944 313 vol;
#X text 989 344 mix;
#X text 1023 343 decay;
#X text 1069 346 vol;
#X text 540 356 left mode;
#X text 636 358 right mode;
#X text 1129 130 Tuning;
#X msg 829 526 set \$1;
#X msg 906 513 set \$1;
#X msg 976 522 set \$1;
#X text 1258 391 cave tune;
#X text 961 409 it controls the currently active cave on the Wingie2;
#X connect 1 0 0 0;
#X connect 11 0 12 0;
#X connect 11 0 140 0;
#X connect 12 0 14 0;
#X connect 12 0 16 0;
#X connect 13 0 32 0;
#X connect 14 0 13 0;
#X connect 15 0 31 0;
#X connect 16 0 15 0;
#X connect 17 0 18 0;
#X connect 17 0 141 0;
#X connect 18 0 20 0;
#X connect 18 0 22 0;
#X connect 19 0 29 0;
#X connect 20 0 19 0;
#X connect 21 0 30 0;
#X connect 22 0 21 0;
#X connect 23 0 24 0;
#X connect 23 0 142 0;
#X connect 24 0 26 0;
#X connect 24 0 28 0;
#X connect 25 0 82 0;
#X connect 26 0 25 0;
#X connect 27 0 83 0;
#X connect 28 0 27 0;
#X connect 33 0 34 0;
#X connect 34 0 36 0;
#X connect 34 0 38 0;
#X connect 35 0 73 0;
#X connect 36 0 35 0;
#X connect 37 0 74 0;
#X connect 38 0 37 0;
#X connect 39 0 40 0;
#X connect 40 0 42 0;
#X connect 40 0 44 0;
#X connect 41 0 75 0;
#X connect 42 0 41 0;
#X connect 43 0 76 0;
#X connect 44 0 43 0;
#X connect 45 0 46 0;
#X connect 46 0 48 0;
#X connect 46 0 50 0;
#X connect 47 0 77 0;
#X connect 48 0 47 0;
#X connect 49 0 78 0;
#X connect 50 0 49 0;
#X connect 51 0 52 0;
#X connect 52 0 54 0;
#X connect 52 0 56 0;
#X connect 53 0 69 0;
#X connect 54 0 53 0;
#X connect 55 0 70 0;
#X connect 56 0 55 0;
#X connect 57 0 58 0;
#X connect 58 0 60 0;
#X connect 58 0 62 0;
#X connect 59 0 71 0;
#X connect 60 0 59 0;
#X connect 61 0 72 0;
#X connect 62 0 61 0;
#X connect 63 0 64 0;
#X connect 64 0 66 0;
#X connect 64 0 68 0;
#X connect 65 0 79 0;
#X connect 66 0 65 0;
#X connect 67 0 80 0;
#X connect 68 0 67 0;
#X connect 81 0 1 0;
#X connect 84 0 96 0;
#X connect 90 0 97 0;
#X connect 96 0 89 0;
#X connect 97 0 95 0;
#X connect 101 0 98 0;
#X connect 102 0 99 0;
#X connect 103 0 100 0;
#X connect 104 0 105 0;
#X connect 104 0 106 0;
#X connect 104 0 107 0;
#X connect 105 0 101 0;
#X connect 106 0 102 0;
#X connect 107 0 103 0;
#X connect 108 0 109 0;
#X connect 109 0 110 0;
#X connect 110 0 111 0;
#X connect 111 0 112 0;
#X connect 112 0 114 0;
#X connect 112 0 116 0;
#X connect 113 0 117 0;
#X connect 114 0 113 0;
#X connect 115 0 118 0;
#X connect 116 0 115 0;
#X connect 124 0 108 0;
#X connect 140 0 51 0;
#X connect 140 0 33 0;
#X connect 141 0 57 0;
#X connect 141 0 39 0;
#X connect 142 0 63 0;
#X connect 142 0 45 0;
#X coords 0 -1 1 1 850 500 2 500 100;
#X restore 18 56 pd w2ctl;
#N canvas 647 1003 1468 1509 test-seq 0;
#N canvas 0 22 450 278 (subpatch) 0;
#X array note 8 float 3;
#A 0 61.9293 70.5011 75 80.5713 73.7143 70.7144 78.8545 80.5686;
#X coords 0 96 8 36 300 140 1 0 0;
#X restore 112 182 graph;
#X floatatom 149 150 5 0 0 0 - - - 0;
#X floatatom 365 651 5 0 0 0 - - - 0;
#X obj 363 623 array get note;
#X obj 114 113 tgl 28 0 empty empty empty 0 -10 0 12 #fcfcfc #000000 #000000 0 1;
#X obj 348 530 int;
#X obj 381 531 + 1;
#X obj 353 563 mod 8;
#X floatatom 323 126 5 0 0 0 - - - 0;
#X msg 374 457 tempo \$1 permin;
#X obj 336 497 metro 0.25 120 permin;
#X obj 365 673 + 0.5;
#X obj 365 696 int;
#X floatatom 365 719 5 0 0 0 - - - 0;
#X obj 380 385 loadbang;
#X msg 380 408 set 120;
#X text 149 112 start;
#X text 365 124 tempo;
#X obj 365 741 makenote 500 127;
#X obj 365 783 noteout 125 1;
#X obj 231 110 vradio 19 1 0 3 empty empty empty 0 -10 0 12 #faff00 #000000 #000000 0;
#X text 256 110 left;
#X text 256 131 right;
#X text 258 149 l/r alt;
#X obj 523 558 + 1;
#X text 189 148 step;
#X obj 454 92 loadbang;
#X msg 458 123 2;
#X connect 1 0 3 0;
#X connect 2 0 11 0;
#X connect 3 0 2 0;
#X connect 4 0 10 0;
#X connect 5 0 6 0;
#X connect 5 0 7 0;
#X connect 6 0 5 1;
#X connect 7 0 1 0;
#X connect 8 0 9 0;
#X connect 9 0 10 0;
#X connect 10 0 5 0;
#X connect 11 0 12 0;
#X connect 12 0 13 0;
#X connect 13 0 18 0;
#X connect 14 0 15 0;
#X connect 15 0 8 0;
#X connect 18 0 19 0;
#X connect 18 1 19 1;
#X connect 20 0 24 0;
#X connect 24 0 19 2;
#X connect 26 0 27 0;
#X connect 27 0 20 0;
#X coords 0 -1 1 1 320 230 2 100 100;
#X restore 18 582 pd test-seq;
#N canvas 998 590 1542 1333 note-play 0;
#X floatatom 20 210 5 0 0 0 - - - 0;
#X text 140 115 Left;
#X text 139 134 Right;
#X text 140 154 L/R Alternate;
#X obj 58 429 noteout;
#X msg 72 248 loadbang;
#X msg 83 289 125;
#X obj 117 117 vradio 19 1 1 3 empty empty empty 0 -10 0 12 #fcfcfc #000000 #000000 2;
#X obj 191 385 + 1;
#X obj 195 122 hsl 410 23 0 127 0 0 empty empty note\ slider -2 -10 0 12 #c6feff #000000 #000000 0 0;
#X connect 0 0 4 0;
#X connect 5 0 6 0;
#X connect 6 0 4 1;
#X connect 7 0 8 0;
#X connect 8 0 4 2;
#X connect 9 0 0 0;
#X coords 0 -1 1 1 520 90 2 100 100;
#X restore 353 596 pd note-play;
#X text 18 13 Wingie Tools for v3.1;
#X text 752 13 mengqimusic.com;
#X text 18 560 play a seq or notes:;
#X text 18 34 settings:;
#X coords 0 836.5 1 835.5 85 60 0;
